<?xml version="1.0" encoding="utf-8"?>
<!-- Generator: Adobe Illustrator 24.1.1, SVG Export Plug-In . SVG Version: 6.00 Build 0)  -->
<svg version="1.1" id="Layer_1" xmlns="http://www.w3.org/2000/svg" xmlns:xlink="http://www.w3.org/1999/xlink" x="0px" y="0px"
	 viewBox="0 0 512 512" style="enable-background:new 0 0 512 512;" xml:space="preserve">
<g>
	<path fill="white" d="M256,0C114.4,0,0,114.6,0,256.3c0,28.5,4.8,55.6,13.2,81.2h76.3V122.2L256,289l166.5-166.8v215.3h76.3
		c8.2-25.7,13.2-52.7,13.2-81.2C512,114.7,397.6,0,256,0L256,0z M217.8,326.6l-72.8-73v135.5H37.5C82.6,462.7,163.8,512,256,512
		c92.2,0,174.1-49.3,218.6-123H367V253.6l-72.2,72.9l-38.2,38.3L218,326.5h-0.2L217.8,326.6z"/>
</g>
</svg>
